<?xml version="1.0" encoding="utf-8" standalone="no"?>
<!DOCTYPE svg PUBLIC "-//W3C//DTD SVG 1.1//EN"
  "http://www.w3.org/Graphics/SVG/1.1/DTD/svg11.dtd">
<!-- Created with matplotlib (https://matplotlib.org/) -->
<svg height="288pt" version="1.1" viewBox="0 0 432 288" width="432pt" xmlns="http://www.w3.org/2000/svg" xmlns:xlink="http://www.w3.org/1999/xlink">
 <metadata>
  <rdf:RDF xmlns:cc="http://creativecommons.org/ns#" xmlns:dc="http://purl.org/dc/elements/1.1/" xmlns:rdf="http://www.w3.org/1999/02/22-rdf-syntax-ns#">
   <cc:Work>
    <dc:type rdf:resource="http://purl.org/dc/dcmitype/StillImage"/>
    <dc:date>2021-05-31T14:20:35.212701</dc:date>
    <dc:format>image/svg+xml</dc:format>
    <dc:creator>
     <cc:Agent>
      <dc:title>Matplotlib v3.3.3, https://matplotlib.org/</dc:title>
     </cc:Agent>
    </dc:creator>
   </cc:Work>
  </rdf:RDF>
 </metadata>
 <defs>
  <style type="text/css">*{stroke-linecap:butt;stroke-linejoin:round;}</style>
 </defs>
 <g id="figure_1">
  <g id="patch_1">
   <path d="M 0 288 
L 432 288 
L 432 0 
L 0 0 
z
" style="fill:none;"/>
  </g>
  <g id="axes_1">
   <g id="patch_2">
    <path d="M 54 252 
L 388.8 252 
L 388.8 34.56 
L 54 34.56 
z
" style="fill:#ffffff;"/>
   </g>
   <g id="matplotlib.axis_1">
    <g id="xtick_1">
     <g id="line2d_1">
      <defs>
       <path d="M 0 0 
L 0 3.5 
" id="mcea86503bf" style="stroke:#000000;stroke-width:0.8;"/>
      </defs>
      <g>
       <use style="stroke:#000000;stroke-width:0.8;" x="103.036364" xlink:href="#mcea86503bf" y="252"/>
      </g>
     </g>
     <g id="text_1">
      <!-- 2 -->
      <g transform="translate(97.036364 273.88125)scale(0.2 -0.2)">
       <defs>
        <path d="M 30 72.59375 
Q 35.203125 72.59375 39.203125 71.25 
Q 43.203125 69.90625 45.890625 67.5 
Q 48.59375 65.09375 49.9375 61.890625 
Q 51.296875 58.703125 51.296875 55 
L 51.296875 54.09375 
Q 51.296875 51.296875 50.75 48.84375 
Q 50.203125 46.40625 49.046875 44 
Q 47.90625 41.59375 46.09375 39.1875 
Q 44.296875 36.796875 41.796875 34.09375 
L 16.90625 6.703125 
L 51.703125 6.703125 
Q 53.09375 6.703125 53.75 5.796875 
Q 54.40625 4.90625 54.40625 3.59375 
Q 54.40625 2.203125 53.75 1.296875 
Q 53.09375 0.40625 51.703125 0.40625 
L 12.796875 0.40625 
Q 9.796875 0.40625 8.546875 1.34375 
Q 7.296875 2.296875 7.296875 4.296875 
Q 7.296875 5.296875 7.84375 6.296875 
Q 8.40625 7.296875 10 9.09375 
L 35.5 37.09375 
Q 38 39.90625 39.640625 42.09375 
Q 41.296875 44.296875 42.296875 46.25 
Q 43.296875 48.203125 43.640625 50 
Q 44 51.796875 44 53.90625 
L 44 54.5 
Q 44 59.796875 40.5 62.890625 
Q 37 66 30.203125 66 
Q 24.59375 66 20.890625 63.59375 
Q 17.203125 61.203125 14.296875 56.796875 
Q 13.5 55.703125 12.25 55.453125 
Q 11 55.203125 9.796875 56 
Q 8.59375 56.796875 8.25 58.046875 
Q 7.90625 59.296875 8.703125 60.59375 
Q 11.90625 65.703125 17.09375 69.140625 
Q 22.296875 72.59375 30 72.59375 
z
" id="NanumSquareRoundR-50"/>
       </defs>
       <use xlink:href="#NanumSquareRoundR-50"/>
      </g>
     </g>
    </g>
    <g id="xtick_2">
     <g id="line2d_2">
      <g>
       <use style="stroke:#000000;stroke-width:0.8;" x="170.672727" xlink:href="#mcea86503bf" y="252"/>
      </g>
     </g>
     <g id="text_2">
      <!-- 4 -->
      <g transform="translate(164.672727 273.88125)scale(0.2 -0.2)">
       <defs>
        <path d="M 42.203125 71.203125 
Q 43.5 70.40625 43.84375 69.203125 
Q 44.203125 68 43.203125 66.5 
L 12.59375 22.5 
L 40.296875 22.5 
L 40.296875 42.703125 
Q 40.296875 44.296875 41.390625 45 
Q 42.5 45.703125 43.90625 45.703125 
Q 45.296875 45.703125 46.4375 45 
Q 47.59375 44.296875 47.59375 42.703125 
L 47.59375 22.5 
L 56.09375 22.5 
Q 57.5 22.5 58.046875 21.59375 
Q 58.59375 20.703125 58.59375 19.40625 
Q 58.59375 18.09375 58.046875 17.1875 
Q 57.5 16.296875 56.09375 16.296875 
L 47.59375 16.296875 
L 47.59375 3 
Q 47.59375 1.40625 46.4375 0.703125 
Q 45.296875 0 43.90625 0 
Q 42.5 0 41.390625 0.703125 
Q 40.296875 1.40625 40.296875 3 
L 40.296875 16.296875 
L 8.90625 16.296875 
Q 6 16.296875 4.84375 17.1875 
Q 3.703125 18.09375 3.703125 20 
Q 3.703125 20.796875 4.09375 21.6875 
Q 4.5 22.59375 6.203125 25 
L 37.703125 70.5 
Q 38.59375 71.796875 39.84375 71.890625 
Q 41.09375 72 42.203125 71.203125 
z
" id="NanumSquareRoundR-52"/>
       </defs>
       <use xlink:href="#NanumSquareRoundR-52"/>
      </g>
     </g>
    </g>
    <g id="xtick_3">
     <g id="line2d_3">
      <g>
       <use style="stroke:#000000;stroke-width:0.8;" x="238.309091" xlink:href="#mcea86503bf" y="252"/>
      </g>
     </g>
     <g id="text_3">
      <!-- 6 -->
      <g transform="translate(232.309091 273.88125)scale(0.2 -0.2)">
       <defs>
        <path d="M 33.703125 72.59375 
Q 38.59375 72.59375 42.796875 71.5 
Q 47 70.40625 49.796875 68.796875 
Q 51.09375 68 51.390625 66.84375 
Q 51.703125 65.703125 51.09375 64.296875 
Q 50.5 63 49.34375 62.59375 
Q 48.203125 62.203125 46.796875 62.90625 
Q 43.90625 64.296875 40.75 65.09375 
Q 37.59375 65.90625 33.59375 65.90625 
Q 28.59375 65.90625 25.09375 63.84375 
Q 21.59375 61.796875 19.1875 58 
Q 16.796875 54.203125 15.5 48.640625 
Q 14.203125 43.09375 13.796875 36.203125 
Q 15 38.59375 16.953125 40.390625 
Q 18.90625 42.203125 21.40625 43.5 
Q 23.90625 44.796875 26.703125 45.4375 
Q 29.5 46.09375 32.5 46.09375 
Q 37.59375 46.09375 41.6875 44.546875 
Q 45.796875 43 48.75 40.09375 
Q 51.703125 37.203125 53.25 33.046875 
Q 54.796875 28.90625 54.796875 23.796875 
L 54.796875 22.203125 
Q 54.796875 16.90625 53 12.65625 
Q 51.203125 8.40625 48.046875 5.453125 
Q 44.90625 2.5 40.546875 0.890625 
Q 36.203125 -0.703125 31.09375 -0.703125 
Q 25.703125 -0.703125 21.25 1.140625 
Q 16.796875 3 13.546875 6.703125 
Q 10.296875 10.40625 8.5 16.046875 
Q 6.703125 21.703125 6.703125 29.296875 
L 6.703125 31.40625 
Q 6.703125 42.796875 8.640625 50.6875 
Q 10.59375 58.59375 14.09375 63.4375 
Q 17.59375 68.296875 22.59375 70.4375 
Q 27.59375 72.59375 33.703125 72.59375 
z
M 31.296875 39.703125 
Q 27.40625 39.703125 24.25 38.453125 
Q 21.09375 37.203125 18.9375 35.09375 
Q 16.796875 33 15.640625 30.140625 
Q 14.5 27.296875 14.5 24.09375 
L 14.5 23.59375 
Q 14.5 19.59375 15.703125 16.34375 
Q 16.90625 13.09375 19.09375 10.796875 
Q 21.296875 8.5 24.34375 7.25 
Q 27.40625 6 31 6 
Q 38.296875 6 42.9375 10.140625 
Q 47.59375 14.296875 47.59375 22.40625 
L 47.59375 23.09375 
Q 47.59375 31.203125 43.5 35.453125 
Q 39.40625 39.703125 31.296875 39.703125 
z
" id="NanumSquareRoundR-54"/>
       </defs>
       <use xlink:href="#NanumSquareRoundR-54"/>
      </g>
     </g>
    </g>
    <g id="xtick_4">
     <g id="line2d_4">
      <g>
       <use style="stroke:#000000;stroke-width:0.8;" x="305.945455" xlink:href="#mcea86503bf" y="252"/>
      </g>
     </g>
     <g id="text_4">
      <!-- 8 -->
      <g transform="translate(299.945455 273.88125)scale(0.2 -0.2)">
       <defs>
        <path d="M 30 72.59375 
Q 34.90625 72.59375 38.84375 71.1875 
Q 42.796875 69.796875 45.59375 67.296875 
Q 48.40625 64.796875 49.90625 61.5 
Q 51.40625 58.203125 51.40625 54.296875 
L 51.40625 53.203125 
Q 51.40625 47.703125 48.34375 43.453125 
Q 45.296875 39.203125 40 36.796875 
Q 46.296875 35.09375 49.9375 30.4375 
Q 53.59375 25.796875 53.59375 19.90625 
L 53.59375 18.703125 
Q 53.59375 14.40625 51.890625 10.796875 
Q 50.203125 7.203125 47.140625 4.640625 
Q 44.09375 2.09375 39.75 0.6875 
Q 35.40625 -0.703125 30.09375 -0.703125 
Q 24.703125 -0.703125 20.296875 0.6875 
Q 15.90625 2.09375 12.84375 4.640625 
Q 9.796875 7.203125 8.09375 10.796875 
Q 6.40625 14.40625 6.40625 18.703125 
L 6.40625 19.90625 
Q 6.40625 25.90625 10.046875 30.5 
Q 13.703125 35.09375 19.90625 36.796875 
Q 14.703125 39.09375 11.640625 43.390625 
Q 8.59375 47.703125 8.59375 53.203125 
L 8.59375 54.296875 
Q 8.59375 58.203125 10.09375 61.5 
Q 11.59375 64.796875 14.34375 67.296875 
Q 17.09375 69.796875 21.046875 71.1875 
Q 25 72.59375 30 72.59375 
z
M 30 66.09375 
Q 23.203125 66.09375 19.453125 62.59375 
Q 15.703125 59.09375 15.703125 53.59375 
L 15.703125 52.90625 
Q 15.703125 50 16.75 47.640625 
Q 17.796875 45.296875 19.6875 43.59375 
Q 21.59375 41.90625 24.25 40.953125 
Q 26.90625 40 30.09375 40 
Q 36.5 40 40.390625 43.59375 
Q 44.296875 47.203125 44.296875 52.90625 
L 44.296875 53.59375 
Q 44.296875 59.09375 40.4375 62.59375 
Q 36.59375 66.09375 30 66.09375 
z
M 30.09375 33.5 
Q 26.59375 33.5 23.640625 32.59375 
Q 20.703125 31.703125 18.453125 29.890625 
Q 16.203125 28.09375 14.953125 25.5 
Q 13.703125 22.90625 13.703125 19.59375 
L 13.703125 18.90625 
Q 13.703125 13.40625 18 9.59375 
Q 22.296875 5.796875 30.09375 5.796875 
Q 37.90625 5.796875 42.09375 9.59375 
Q 46.296875 13.40625 46.296875 18.90625 
L 46.296875 19.59375 
Q 46.296875 22.796875 45.09375 25.390625 
Q 43.90625 28 41.703125 29.796875 
Q 39.5 31.59375 36.546875 32.546875 
Q 33.59375 33.5 30.09375 33.5 
z
" id="NanumSquareRoundR-56"/>
       </defs>
       <use xlink:href="#NanumSquareRoundR-56"/>
      </g>
     </g>
    </g>
    <g id="xtick_5">
     <g id="line2d_5">
      <g>
       <use style="stroke:#000000;stroke-width:0.8;" x="373.581818" xlink:href="#mcea86503bf" y="252"/>
      </g>
     </g>
     <g id="text_5">
      <!-- 10 -->
      <g transform="translate(361.581818 273.88125)scale(0.2 -0.2)">
       <defs>
        <path d="M 36.296875 71.90625 
Q 38 71.90625 39.09375 71.15625 
Q 40.203125 70.40625 40.203125 68.703125 
L 40.203125 3 
Q 40.203125 1.40625 39.09375 0.703125 
Q 38 0 36.5 0 
Q 35.09375 0 34 0.703125 
Q 32.90625 1.40625 32.90625 3 
L 32.90625 63.09375 
L 15.90625 52.296875 
Q 14.5 51.5 13.34375 52 
Q 12.203125 52.5 11.40625 53.703125 
Q 10.703125 54.796875 10.84375 56.09375 
Q 11 57.40625 12.296875 58.203125 
L 31.203125 70 
Q 34.40625 71.90625 36.296875 71.90625 
z
" id="NanumSquareRoundR-49"/>
        <path d="M 30 72.59375 
Q 43.203125 72.59375 48.890625 63.9375 
Q 54.59375 55.296875 54.59375 38.703125 
L 54.59375 33.203125 
Q 54.59375 16.5 48.890625 7.890625 
Q 43.203125 -0.703125 30 -0.703125 
Q 16.796875 -0.703125 11.09375 7.890625 
Q 5.40625 16.5 5.40625 33.203125 
L 5.40625 38.703125 
Q 5.40625 55.296875 11.09375 63.9375 
Q 16.796875 72.59375 30 72.59375 
z
M 30 65.796875 
Q 25.09375 65.796875 21.796875 64.140625 
Q 18.5 62.5 16.453125 59.046875 
Q 14.40625 55.59375 13.546875 50.34375 
Q 12.703125 45.09375 12.703125 38 
L 12.703125 33.90625 
Q 12.703125 26.796875 13.546875 21.546875 
Q 14.40625 16.296875 16.453125 12.84375 
Q 18.5 9.40625 21.796875 7.75 
Q 25.09375 6.09375 30 6.09375 
Q 34.90625 6.09375 38.203125 7.75 
Q 41.5 9.40625 43.546875 12.84375 
Q 45.59375 16.296875 46.4375 21.546875 
Q 47.296875 26.796875 47.296875 33.90625 
L 47.296875 38 
Q 47.296875 45.09375 46.4375 50.34375 
Q 45.59375 55.59375 43.546875 59.046875 
Q 41.5 62.5 38.203125 64.140625 
Q 34.90625 65.796875 30 65.796875 
z
" id="NanumSquareRoundR-48"/>
       </defs>
       <use xlink:href="#NanumSquareRoundR-49"/>
       <use x="59.999985" xlink:href="#NanumSquareRoundR-48"/>
      </g>
     </g>
    </g>
   </g>
   <g id="matplotlib.axis_2">
    <g id="ytick_1">
     <g id="line2d_6">
      <defs>
       <path d="M 0 0 
L -3.5 0 
" id="mc3562fbc19" style="stroke:#000000;stroke-width:0.8;"/>
      </defs>
      <g>
       <use style="stroke:#000000;stroke-width:0.8;" x="54" xlink:href="#mc3562fbc19" y="209.170909"/>
      </g>
     </g>
     <g id="text_6">
      <!-- 5 -->
      <g transform="translate(35 216.611534)scale(0.2 -0.2)">
       <defs>
        <path d="M 47.90625 71.5 
Q 49.296875 71.5 49.890625 70.59375 
Q 50.5 69.703125 50.5 68.296875 
Q 50.5 66.90625 49.890625 66 
Q 49.296875 65.09375 47.90625 65.09375 
L 19.203125 65.09375 
L 17.59375 39.09375 
Q 20.203125 41.40625 24.09375 43 
Q 28 44.59375 33 44.59375 
Q 38.09375 44.59375 42.140625 43 
Q 46.203125 41.40625 49 38.5 
Q 51.796875 35.59375 53.25 31.59375 
Q 54.703125 27.59375 54.703125 22.796875 
L 54.703125 21.703125 
Q 54.703125 17.703125 53.390625 13.703125 
Q 52.09375 9.703125 49.1875 6.5 
Q 46.296875 3.296875 41.59375 1.296875 
Q 36.90625 -0.703125 30.203125 -0.703125 
Q 23.796875 -0.703125 18.296875 1 
Q 12.796875 2.703125 8.703125 5.5 
Q 7.296875 6.40625 7.09375 7.75 
Q 6.90625 9.09375 7.703125 10.40625 
Q 9.40625 13.203125 12.296875 11.5 
Q 16.09375 9 20.5 7.5 
Q 24.90625 6 30.203125 6 
Q 34.796875 6 38.09375 7.34375 
Q 41.40625 8.703125 43.453125 10.953125 
Q 45.5 13.203125 46.453125 16 
Q 47.40625 18.796875 47.40625 21.796875 
L 47.40625 22.5 
Q 47.40625 30.59375 43.203125 34.4375 
Q 39 38.296875 31.296875 38.296875 
Q 26.90625 38.296875 23.59375 36.890625 
Q 20.296875 35.5 17.703125 33.203125 
Q 16.59375 32.203125 15.796875 31.796875 
Q 15 31.40625 13.703125 31.40625 
Q 12.296875 31.40625 11.296875 32.15625 
Q 10.296875 32.90625 10.40625 34.296875 
L 12.203125 64.796875 
Q 12.40625 68.703125 13.75 70.09375 
Q 15.09375 71.5 18.90625 71.5 
L 47.90625 71.5 
z
" id="NanumSquareRoundR-53"/>
       </defs>
       <use xlink:href="#NanumSquareRoundR-53"/>
      </g>
     </g>
    </g>
    <g id="ytick_2">
     <g id="line2d_7">
      <g>
       <use style="stroke:#000000;stroke-width:0.8;" x="54" xlink:href="#mc3562fbc19" y="154.261818"/>
      </g>
     </g>
     <g id="text_7">
      <!-- 10 -->
      <g transform="translate(23 161.702443)scale(0.2 -0.2)">
       <use xlink:href="#NanumSquareRoundR-49"/>
       <use x="59.999985" xlink:href="#NanumSquareRoundR-48"/>
      </g>
     </g>
    </g>
    <g id="ytick_3">
     <g id="line2d_8">
      <g>
       <use style="stroke:#000000;stroke-width:0.8;" x="54" xlink:href="#mc3562fbc19" y="99.352727"/>
      </g>
     </g>
     <g id="text_8">
      <!-- 15 -->
      <g transform="translate(23 106.793352)scale(0.2 -0.2)">
       <use xlink:href="#NanumSquareRoundR-49"/>
       <use x="59.999985" xlink:href="#NanumSquareRoundR-53"/>
      </g>
     </g>
    </g>
    <g id="ytick_4">
     <g id="line2d_9">
      <g>
       <use style="stroke:#000000;stroke-width:0.8;" x="54" xlink:href="#mc3562fbc19" y="44.443636"/>
      </g>
     </g>
     <g id="text_9">
      <!-- 20 -->
      <g transform="translate(23 51.884261)scale(0.2 -0.2)">
       <use xlink:href="#NanumSquareRoundR-50"/>
       <use x="59.999985" xlink:href="#NanumSquareRoundR-48"/>
      </g>
     </g>
    </g>
   </g>
   <g id="line2d_10">
    <path clip-path="url(#pc174478538)" d="M 69.218182 242.116364 
L 103.036364 220.152727 
L 136.854545 198.189091 
L 170.672727 176.225455 
L 204.490909 154.261818 
L 238.309091 132.298182 
L 272.127273 110.334545 
L 305.945455 88.370909 
L 339.763636 66.407273 
L 373.581818 44.443636 
" style="fill:none;stroke:#1f77b4;stroke-linecap:square;stroke-width:1.5;"/>
   </g>
   <g id="patch_3">
    <path d="M 54 252 
L 54 34.56 
" style="fill:none;stroke:#000000;stroke-linecap:square;stroke-linejoin:miter;stroke-width:0.8;"/>
   </g>
   <g id="patch_4">
    <path d="M 388.8 252 
L 388.8 34.56 
" style="fill:none;stroke:#000000;stroke-linecap:square;stroke-linejoin:miter;stroke-width:0.8;"/>
   </g>
   <g id="patch_5">
    <path d="M 54 252 
L 388.8 252 
" style="fill:none;stroke:#000000;stroke-linecap:square;stroke-linejoin:miter;stroke-width:0.8;"/>
   </g>
   <g id="patch_6">
    <path d="M 54 34.56 
L 388.8 34.56 
" style="fill:none;stroke:#000000;stroke-linecap:square;stroke-linejoin:miter;stroke-width:0.8;"/>
   </g>
  </g>
 </g>
 <defs>
  <clipPath id="pc174478538">
   <rect height="217.44" width="334.8" x="54" y="34.56"/>
  </clipPath>
 </defs>
</svg>
